<svg xmlns="http://www.w3.org/2000/svg" xml:space="preserve" width="2048px" height="2048px" style="shape-rendering:geometricPrecision; text-rendering:geometricPrecision; image-rendering:optimizeQuality; fill-rule:evenodd; clip-rule:evenodd"
viewBox="0 0 2048 2048"
 xmlns:xlink="http://www.w3.org/1999/xlink">
 <defs>
  <style type="text/css">
   <![CDATA[
    .fil1 {fill:none}
    .fil0 {fill:#212121;fill-rule:nonzero}
   ]]>
  </style>
 </defs>
 <g id="Layer_x0020_1">
  <metadata id="CorelCorpID_0Corel-Layer"/>
  <g id="_454111384">
   <path id="_559822152" class="fil0" d="M1629.15 581.687l-720.355 0 0.0011811 0.713386c0,90.1288 -36.5362,171.731 -95.6032,230.798 -59.067,59.067 -140.669,95.6032 -230.798,95.6032l-0.713386 -0.0011811 0 720.355c0,27.15 11.1307,51.8552 29.0599,69.7843 17.9291,17.9291 42.6343,29.0599 69.7843,29.0599l948.624 0c27.15,0 51.8552,-11.1307 69.7843,-29.0599 17.9291,-17.9291 29.0599,-42.6343 29.0599,-69.7843l0 -948.624c0,-27.15 -11.1307,-51.8552 -29.0599,-69.7843 -17.9291,-17.9291 -42.6343,-29.0599 -69.7843,-29.0599zm-754.172 -64.0016l754.172 0c44.8158,0 85.5355,18.3118 115.035,47.8111 29.4992,29.4992 47.8111,70.219 47.8111,115.035l0 948.624c0,44.8158 -18.3118,85.5355 -47.8111,115.035 -29.4992,29.4992 -70.219,47.8111 -115.035,47.8111l-948.624 0c-44.8158,0 -85.5355,-18.3118 -115.035,-47.8111 -29.4992,-29.4992 -47.8111,-70.219 -47.8111,-115.035l0 -754.151c0.0011811,-1.16929 0.0637796,-2.3504 0.194882,-3.53977 1.94291,-17.5654 17.7591,-30.2303 35.3244,-28.2874l-0.00590552 0.056693c5.08111,0.562205 9.96733,0.977954 14.6339,1.23662 3.913,0.217323 8.75316,0.329528 14.5677,0.329528 72.463,0 138.066,-29.3705 185.548,-76.852 47.4815,-47.4815 76.852,-113.085 76.852,-185.548 0,-5.81457 -0.112205,-10.6547 -0.329528,-14.5677 -0.226772,-4.09016 -0.574016,-8.34922 -1.03465,-12.7595 -0.296457,-1.75158 -0.453544,-3.55158 -0.453544,-5.38701 0,-17.6728 14.328,-32.0008 32.0008,-32.0008z"/>
   <path id="_559822248" class="fil0" d="M582.4 320.001c-72.463,0 -138.066,29.3705 -185.548,76.852 -47.4815,47.4815 -76.852,113.085 -76.852,185.548 0,72.463 29.3705,138.066 76.852,185.548 47.4815,47.4815 113.085,76.852 185.548,76.852 72.463,0 138.066,-29.3705 185.548,-76.852 47.4815,-47.4815 76.852,-113.085 76.852,-185.548 0,-72.463 -29.3705,-138.066 -76.852,-185.548 -47.4815,-47.4815 -113.085,-76.852 -185.548,-76.852zm-230.798 31.6016c59.067,-59.067 140.669,-95.6032 230.798,-95.6032 90.1288,0 171.731,36.5362 230.798,95.6032 59.067,59.067 95.6032,140.669 95.6032,230.798 0,90.1288 -36.5362,171.731 -95.6032,230.798 -59.067,59.067 -140.669,95.6032 -230.798,95.6032 -90.1288,0 -171.731,-36.5362 -230.798,-95.6032 -59.067,-59.067 -95.6032,-140.669 -95.6032,-230.798 0,-90.1288 36.5362,-171.731 95.6032,-230.798z"/>
  </g>
 </g>
 <rect class="fil1" width="2048" height="2048"/>
</svg>
